HIERARCHY
ROOT Hips
{
	OFFSET 0.000000 0.000000 0.000000
	CHANNELS 6 Xposition Yposition Zposition Zrotation Yrotation Xrotation 
	JOINT LHipJoint
	{
		OFFSET 0.000000 0.000000 0.000000
		CHANNELS 3 Zrotation Yrotation Xrotation
		JOINT LeftUpLeg
		{
			OFFSET 1.363060 -1.794630 0.839290
			CHANNELS 3 Zrotation Yrotation Xrotation
			JOINT LeftLeg
			{
				OFFSET 2.448110 -6.726130 0.000000
				CHANNELS 3 Zrotation Yrotation Xrotation
				JOINT LeftFoot
				{
					OFFSET 2.562200 -7.039590 0.000000
					CHANNELS 3 Zrotation Yrotation Xrotation
					JOINT LeftToeBase
					{
						OFFSET 0.157640 -0.433110 2.322550
						CHANNELS 3 Zrotation Yrotation Xrotation
						End Site
						{
							OFFSET 0.000000 0.000000 0.000000
						}
					}
				}
			}
		}
	}
	JOINT RHipJoint
	{
		OFFSET 0.000000 0.000000 0.000000
		CHANNELS 3 Zrotation Yrotation Xrotation
		JOINT RightUpLeg
		{
			OFFSET -1.305520 -1.794630 0.839290
			CHANNELS 3 Zrotation Yrotation Xrotation
			JOINT RightLeg
			{
				OFFSET -2.542530 -6.985550 0.000000
				CHANNELS 3 Zrotation Yrotation Xrotation
				JOINT RightFoot
				{
					OFFSET -2.568260 -7.056230 0.000000
					CHANNELS 3 Zrotation Yrotation Xrotation
					JOINT RightToeBase
					{
						OFFSET -0.164730 -0.452590 2.363150
						CHANNELS 3 Zrotation Yrotation Xrotation
						End Site
						{
							OFFSET 0.000000 0.000000 0.000000
						}
					}
				}
			}
		}
	}
}
MOTION
Frames: 27
Frame Time: 0.008333
10.970940 16.061560 1.551538 47.142962 -87.420657 -40.069151 -10.381770 2.220281 -0.698667 -7.788514 16.189010 -24.695178 -2.219155 1.906794 45.464109 2.937609 13.322820 -26.813692 -5.054100 0.000001 -51.691300 10.873183 -0.793227 -2.629839 1.155689 -23.748112 -23.685957 2.433565 -2.819818 46.278505 -1.195655 -0.786501 -23.825674 0.846200 0.000000 -73.843200
10.961334 15.991584 1.559882 49.328093 -87.378790 -41.772207 -10.379469 2.156182 -0.777797 -8.120564 16.099132 -25.942457 -2.191660 2.048707 47.158174 2.993576 13.439432 -27.457372 -5.250800 -0.000000 -51.268300 10.890558 -0.722658 -2.651110 1.192083 -23.659003 -25.046336 2.406844 -3.014879 48.081864 -1.209486 -0.682753 -24.518988 0.852700 0.000000 -73.839800
10.951912 15.913908 1.567853 51.406854 -87.330781 -43.352005 -10.378392 2.092406 -0.855528 -8.460823 15.999160 -27.277505 -2.154900 2.205487 48.986659 3.049448 13.549729 -28.124957 -5.452400 -0.000000 -50.926200 10.911027 -0.649139 -2.668573 1.232143 -23.558851 -26.487987 2.367358 -3.224800 50.018095 -1.222255 -0.567980 -25.236863 0.854500 0.000000 -73.849600
10.941682 15.828453 1.575061 53.452623 -87.271320 -44.873912 -10.376297 2.032123 -0.925851 -8.822010 15.890141 -28.707215 -2.107919 2.375447 50.936360 3.104963 13.652786 -28.805210 -5.655700 -0.000001 -50.703000 10.936196 -0.573256 -2.674898 1.272808 -23.448551 -28.019194 2.313496 -3.447951 52.075312 -1.233331 -0.439712 -25.970559 0.849800 -0.000000 -73.878700
10.931476 15.735452 1.582007 55.230619 -87.212489 -46.120987 -10.376766 1.972014 -0.997377 -9.175465 15.788500 -30.202538 -2.049361 2.559487 52.995833 3.157477 13.741661 -29.490184 -5.855400 -0.000000 -50.620000 10.964071 -0.496149 -2.679551 1.320432 -23.333760 -29.596957 2.244380 -3.681924 54.223636 -1.241908 -0.300334 -26.702260 0.837900 0.000001 -73.946801
10.920395 15.635129 1.588349 56.825993 -87.149262 -47.173215 -10.377559 1.914748 -1.064485 -9.534128 15.695812 -31.766140 -1.978631 2.755198 55.146400 3.207108 13.816702 -30.171003 -6.049100 0.000000 -50.688600 10.995682 -0.418395 -2.676058 1.371853 -23.217939 -31.225809 2.159251 -3.924599 56.447336 -1.247823 -0.149064 -27.426461 0.817900 -0.000000 -74.056000
10.908708 15.527893 1.594250 58.146581 -87.086281 -47.950079 -10.379973 1.858970 -1.131228 -9.885598 15.622276 -33.375665 -1.895197 2.961780 57.370677 3.252744 13.875279 -30.843539 -6.234199 -0.000000 -50.902299 11.029921 -0.340568 -2.669314 1.428070 -23.108591 -32.877679 2.058246 -4.173625 58.721472 -1.250950 0.012091 -28.135583 0.789700 0.000000 -74.215600
10.895135 15.414155 1.599354 59.288875 -87.017438 -48.536310 -10.381182 1.807972 -1.188689 -10.247276 15.563260 -35.041258 -1.798876 3.176298 59.651165 3.295766 13.920377 -31.505551 -6.411100 0.000000 -51.242599 11.067322 -0.263543 -2.650117 1.489459 -23.007265 -34.567504 1.941202 -4.427037 61.035071 -1.252381 0.180335 -28.831880 0.754600 0.000001 -74.412000
10.880029 15.294500 1.603780 60.174126 -86.945866 -48.864457 -10.382079 1.760239 -1.239591 -10.609419 15.521198 -36.742588 -1.689389 3.397689 61.971816 3.336162 13.952834 -32.158466 -6.580100 0.000000 -51.679500 11.106583 -0.187492 -2.623237 1.557874 -22.920439 -36.272008 1.808798 -4.682968 63.368306 -1.252902 0.350803 -29.514525 0.714100 0.000000 -74.643900
10.863590 15.169650 1.607714 60.737542 -86.874594 -48.878344 -10.383625 1.714501 -1.286227 -10.963138 15.496960 -38.459644 -1.566845 3.624742 64.317034 3.373955 13.972683 -32.805384 -6.741700 0.000001 -52.182800 11.146359 -0.112820 -2.593368 1.634546 -22.854482 -37.969369 1.662176 -4.939795 65.704128 -1.253430 0.518946 -30.185493 0.670400 -0.000000 -74.908300
10.845764 15.040344 1.611196 60.964174 -86.802656 -48.566551 -10.385601 1.670610 -1.327324 -11.307325 15.483731 -40.180957 -1.431276 3.855745 66.673022 3.410035 13.983075 -33.449552 -6.898100 0.000000 -52.722400 11.185996 -0.039529 -2.561920 1.720118 -22.813341 -39.650274 1.502221 -5.196328 68.031608 -1.255208 0.679621 -30.849139 0.625800 -0.000000 -75.195300
10.826390 14.907344 1.614281 60.835202 -86.729502 -47.911464 -10.388161 1.628320 -1.361415 -11.639420 15.473328 -41.896001 -1.282747 4.089046 69.027944 3.445051 13.986125 -34.093220 -7.050400 0.000000 -53.277700 11.224721 0.032075 -2.530310 1.816207 -22.799472 -41.306324 1.329922 -5.451538 70.341452 -1.259399 0.828142 -31.509464 0.582900 0.000000 -75.492400
10.806657 14.771749 1.617198 60.288197 -86.657129 -46.872305 -10.393289 1.585111 -1.397019 -11.942268 15.466669 -43.565770 -1.121886 4.323833 71.366207 3.477932 13.981208 -34.735689 -7.198200 -0.000000 -53.840000 11.261951 0.103332 -2.510876 1.915572 -22.821585 -42.897155 1.146871 -5.704505 72.618063 -1.265685 0.963074 -32.164357 0.542300 0.000000 -75.819000
10.786537 14.634568 1.619949 59.347838 -86.582559 -45.475537 -10.401084 1.541078 -1.434208 -12.213357 15.455371 -45.174733 -0.949185 4.558181 73.674562 3.508610 13.969906 -35.372416 -7.340700 -0.000000 -54.412600 11.297870 0.174847 -2.506341 2.013912 -22.880973 -44.410769 0.954004 -5.954411 74.853009 -1.274044 1.083183 -32.811498 0.504901 0.000000 -76.181600
10.765225 14.496443 1.622372 58.086515 -86.501607 -43.782073 -10.410265 1.497903 -1.464466 -12.462219 15.423936 -46.735293 -0.764218 4.789665 75.947428 3.537953 13.956200 -35.995498 -7.477400 0.000000 -55.009800 11.332550 0.245886 -2.509247 2.115376 -22.970276 -45.865575 0.751389 -6.200400 77.045944 -1.285047 1.187020 -33.450384 0.471900 0.000001 -76.544600
10.744232 14.358865 1.624565 56.518765 -86.413394 -41.831133 -10.422859 1.453392 -1.500484 -12.670969 15.379472 -48.197986 -0.568771 5.017125 78.164509 3.563486 13.937914 -36.592955 -7.604200 0.000000 -55.655100 11.366732 0.319129 -2.534374 2.202053 -23.096896 -47.210548 0.540806 -6.441338 79.177580 -1.296183 1.279004 -34.066317 0.441000 0.000000 -76.968800
10.722288 14.222462 1.626316 54.765996 -86.314048 -39.724968 -10.437330 1.409814 -1.532291 -12.852315 15.310096 -49.582952 -0.362947 5.237897 80.320149 3.585675 13.918032 -37.151074 -7.718700 0.000000 -56.373900 11.400655 0.393085 -2.570437 2.278397 -23.248271 -48.471220 0.322346 -6.675927 81.246983 -1.307355 1.359887 -34.653635 0.412300 0.000000 -77.413100
10.700357 14.088564 1.627508 52.908217 -86.202317 -37.558874 -10.454477 1.366293 -1.568290 -12.998881 15.223502 -50.858230 -0.148948 5.450434 82.396508 3.602765 13.896667 -37.655788 -7.817600 0.000000 -57.185700 11.435268 0.469654 -2.624815 2.328861 -23.424152 -49.615359 0.097622 -6.902662 83.237801 -1.316142 1.433937 -35.196500 0.383100 0.000000 -77.937400
10.677514 13.957912 1.627903 51.068939 -86.077186 -35.441815 -10.472917 1.324358 -1.601565 -13.121487 15.116156 -52.040024 0.071888 5.652383 84.385549 3.615081 13.876455 -38.095231 -7.899100 0.000000 -58.101600 11.470715 0.547153 -2.687250 2.356577 -23.610887 -50.662334 -0.132444 -7.119808 85.145154 -1.322205 1.502203 -35.688360 0.353399 -0.000000 -78.499800
10.653475 13.831431 1.627334 49.342741 -85.939823 -33.463893 -10.492197 1.284491 -1.632584 -13.223141 14.993441 -53.124368 0.296928 5.842035 86.274956 3.622556 13.859623 -38.461782 -7.962700 0.000000 -59.116999 11.507458 0.624885 -2.754373 2.357399 -23.798563 -51.609344 -0.365970 -7.325526 86.958292 -1.324888 1.564857 -36.121655 0.323000 -0.000000 -79.108800
10.627966 13.709963 1.625664 47.799265 -85.792766 -31.690632 -10.511381 1.247117 -1.660113 -13.308866 14.860729 -54.115173 0.523177 6.017902 88.054164 3.625829 13.848830 -38.753596 -8.009900 0.000000 -60.210801 11.545622 0.701607 -2.820670 2.332033 -23.975933 -52.461042 -0.600657 -7.517865 88.667961 -1.324562 1.619196 -36.494529 0.293600 -0.000000 -79.758600
10.600433 13.594213 1.622758 46.492341 -85.639992 -30.167572 -10.529477 1.212928 -1.682179 -13.384147 14.723829 -55.019402 0.747149 6.178835 89.714442 3.626276 13.847253 -38.976182 -8.044200 0.000000 -61.347100 11.585280 0.775305 -2.879544 2.284739 -24.130448 -53.225902 -0.833814 -7.695008 90.267259 -1.322636 1.659802 -36.811773 0.268400 0.000000 -80.420900
10.570473 13.484866 1.618586 45.436130 -85.486419 -28.902966 -10.545675 1.182400 -1.697401 -13.452736 14.588401 -55.843375 0.964932 6.324209 91.248008 3.625627 13.857311 -39.141966 -8.070600 -0.000000 -62.479100 11.626203 0.844125 -2.925697 2.221857 -24.251344 -53.911699 -1.062152 -7.855265 91.749460 -1.321447 1.678115 -37.083509 0.252600 0.000001 -81.079600
10.537604 13.382528 1.613211 44.633778 -85.336512 -27.893348 -10.559314 1.156308 -1.704175 -13.517673 14.459554 -56.592508 1.172247 6.453662 92.648118 3.625974 13.881072 -39.269233 -8.095400 -0.000000 -63.556200 11.668170 0.905810 -2.954352 2.151298 -24.329787 -54.526076 -1.282038 -7.997264 93.109649 -1.324074 1.663849 -37.325403 0.252400 0.000000 -81.701900
10.501523 13.287775 1.606705 44.068292 -85.194227 -27.118572 -10.570002 1.135328 -1.701194 -13.581109 14.340449 -57.270964 1.364918 6.567192 93.909843 3.629331 13.919291 -39.379437 -8.125200 0.000000 -64.532000 11.710733 0.958489 -2.962283 2.081748 -24.359856 -55.076245 -1.489767 -8.120072 94.344646 -1.334104 1.605195 -37.556673 0.274800 0.000000 -82.254800
10.462009 13.201274 1.599275 43.702890 -85.062476 -26.539668 -10.577977 1.120124 -1.688747 -13.641732 14.233046 -57.876031 1.538654 6.665088 95.027468 3.637314 13.971219 -39.494701 -8.165800 -0.000000 -65.367700 11.753350 1.000727 -2.949742 2.020134 -24.340573 -55.561764 -1.681301 -8.223118 95.449625 -1.354926 1.490562 -37.795156 0.326901 -0.000000 -82.739400
10.418934 13.123614 1.591099 43.508088 -84.942185 -26.127457 -10.583507 1.111578 -1.666398 -13.699477 14.136682 -58.404904 1.689685 6.747482 95.996650 3.650953 14.034326 -39.633669 -8.221200 0.000000 -66.041201 11.795408 1.031424 -2.917380 1.972660 -24.274565 -55.984235 -1.853126 -8.306422 96.421931 -1.389498 1.310676 -38.057160 0.414800 -0.000000 -83.138501
